<svg width="750" height="128" viewBox="0 0 750 128" fill="none" xmlns="http://www.w3.org/2000/svg">
<g clip-path="url(#clip0_1189_18590)">
<path d="M223.933 13.1025C228.765 13.1852 233.44 13.8868 237.953 15.2139L238.848 15.4854C243.299 16.8769 247.355 18.7726 251 21.1738L251.507 21.5107C254.02 23.21 256.253 25.0625 258.208 27.0645L258.394 27.2656C260.245 29.3693 259.957 32.4578 258.12 34.3877L258.119 34.3887L252.199 40.6016C250.105 42.7985 246.764 42.8478 244.461 41.1445L244.242 40.9736C242.705 39.7241 241.139 38.6234 239.547 37.668L239.538 37.6621L239.529 37.6562C237.131 36.1683 234.62 34.9911 231.997 34.125L231.472 33.9551C228.855 33.1373 226.156 32.7034 223.379 32.6523L222.823 32.6475C218.422 32.6479 214.355 33.4378 210.607 35.0049L209.921 35.3086C206.521 36.86 203.51 38.9491 200.883 41.5762C198.35 44.1953 196.309 47.24 194.761 50.7207L194.458 51.4248C192.889 55.1744 192.091 59.293 192.091 63.7939C192.091 68.1021 192.885 72.1769 194.462 76.0312C196.133 79.8918 198.411 83.2612 201.297 86.1475L201.846 86.6836C204.607 89.3215 207.75 91.422 211.282 92.9863C215.132 94.5599 219.209 95.3486 223.515 95.3486C226.762 95.3485 229.766 94.8691 232.534 93.918L233.054 93.7334C235.632 92.7939 237.927 91.5531 239.949 90.0205C242.087 88.3072 243.686 86.3598 244.773 84.1865L244.783 84.167L244.793 84.1475C245.754 82.3631 246.318 80.468 246.489 78.4521H226.136C223.05 78.4505 220.546 75.9481 220.544 72.8613V65.1768L220.552 64.8896C220.703 61.9359 223.146 59.5875 226.136 59.5859H262.153L262.403 59.5918C264.979 59.7094 267.267 61.6254 267.467 64.3701C267.559 65.5767 267.604 66.7839 267.606 67.9893C267.697 69.0915 267.749 70.0811 267.749 70.9463C267.749 77.4447 266.616 83.4174 264.332 88.8418L264.329 88.8496C262.051 94.1633 258.817 98.7732 254.638 102.67L254.639 102.671C250.554 106.565 245.764 109.6 240.281 111.774L240.269 111.779C234.86 113.867 228.993 114.902 222.687 114.902C215.275 114.902 208.395 113.636 202.064 111.085L202.055 111.082L202.045 111.078C195.739 108.442 190.217 104.809 185.496 100.182L185.487 100.172C180.857 95.5421 177.261 90.1552 174.713 84.0215L174.711 84.0137C172.239 77.9683 170.972 71.4479 170.894 64.4697L170.89 63.7939C170.89 56.649 172.159 49.9899 174.713 43.8389L174.718 43.8291L174.969 43.2471C177.59 37.2705 181.191 32.0768 185.769 27.6787L186.214 27.2471C190.841 22.824 196.219 19.3766 202.337 16.9111L202.344 16.9092C208.761 14.3612 215.641 13.0938 222.964 13.0938L223.933 13.1025Z" fill="white"/>
<path fill-rule="evenodd" clip-rule="evenodd" d="M383.813 13.0977C390.674 13.1744 397.038 14.4374 402.888 16.9053L403.45 17.1475C409.236 19.672 414.285 23.175 418.579 27.6514L418.991 28.0859C423.217 32.6047 426.511 37.8705 428.874 43.8672L429.101 44.4434C431.4 50.4132 432.539 56.9377 432.539 63.9961C432.539 70.969 431.398 77.4866 429.103 83.5332L428.877 84.1162C426.513 90.1165 423.22 95.3879 418.991 99.9092L418.579 100.344C414.285 104.82 409.236 108.324 403.45 110.849L402.888 111.091C396.849 113.638 390.261 114.902 383.147 114.902C376.119 114.902 369.574 113.638 363.538 111.091C357.524 108.554 352.256 105.02 347.738 100.502L347.716 100.48C343.565 96.1527 340.286 91.1254 337.882 85.4102L337.413 84.2568C334.964 78.0441 333.75 71.2826 333.749 63.9961C333.749 56.7099 334.966 49.9513 337.413 43.7393L337.882 42.5859C340.288 36.8729 343.569 31.8858 347.727 27.6396L348.153 27.2109C352.576 22.8045 357.707 19.3657 363.538 16.9053L364.105 16.6709C369.984 14.2812 376.339 13.0938 383.147 13.0938L383.813 13.0977ZM383.147 32.9805C379.044 32.9806 375.271 33.7648 371.819 35.3184L371.791 35.3301C368.333 36.8006 365.356 38.9152 362.85 41.6797L362.851 41.6807C360.491 44.2849 358.614 47.3195 357.235 50.791L356.966 51.4902C355.573 55.2349 354.865 59.3988 354.864 63.9961L354.871 64.8359C354.954 69.0142 355.658 72.9021 356.966 76.5049L357.235 77.2051C358.614 80.6762 360.49 83.7104 362.85 86.3145L363.327 86.8281C365.733 89.3511 368.557 91.3422 371.806 92.8066C375.261 94.2727 379.039 95.0155 383.147 95.0156L383.931 95.0068C387.818 94.9196 391.325 94.1801 394.467 92.8135C397.942 91.2499 400.933 89.0859 403.445 86.3145C405.964 83.4436 407.923 80.1305 409.323 76.3682L409.328 76.3555L409.333 76.3408C410.812 72.6005 411.56 68.4895 411.56 63.9961C411.56 59.5035 410.812 55.3943 409.333 51.6543L409.328 51.6406L409.323 51.627C407.921 47.8606 405.961 44.5934 403.445 41.8164L403.437 41.8076L403.43 41.8008C400.924 38.9493 397.95 36.7969 394.498 35.3301L394.457 35.3125C391.317 33.8633 387.814 33.0814 383.929 32.9893L383.147 32.9805Z" fill="white"/>
<path fill-rule="evenodd" clip-rule="evenodd" d="M543.483 13.0977C549.432 13.1869 554.907 14.6598 559.874 17.5254C564.974 20.374 569.011 24.3132 571.961 29.3174C575.031 34.2698 576.557 39.8568 576.558 46.0352L576.553 46.5879C576.461 52.2874 574.931 57.5893 571.973 62.46L571.974 62.4609C569.02 67.3857 564.976 71.3269 559.874 74.2705L559.867 74.2754C559.067 74.7302 558.849 75.6614 559.207 76.2822L576.585 106.293L576.778 106.655C578.57 110.303 576.055 114.64 571.997 114.892L571.585 114.902L559.741 114.824C557.684 114.809 555.794 113.695 554.784 111.906L554.783 111.905L536.789 79.958C536.333 79.1482 535.498 78.6258 534.577 78.5635L534.391 78.5576H522.183C520.665 78.5587 519.433 79.7907 519.432 81.3086V109.069C519.432 112.235 516.869 114.809 513.7 114.81H504.272C501.103 114.809 498.538 112.235 498.538 109.069V18.8271C498.539 15.661 501.105 13.0939 504.272 13.0938H542.906L543.483 13.0977ZM522.183 32.5791C520.665 32.5802 519.433 33.8119 519.432 35.3301V56.8867C519.432 58.4044 520.663 59.6356 522.183 59.6367H543.046L543.509 59.6309C545.649 59.57 547.464 59.0844 548.993 58.2178L549.316 58.0264C551.142 56.8604 552.555 55.2865 553.563 53.2725C554.578 51.2416 555.093 48.9768 555.094 46.4609L555.086 45.9277C555.01 43.2919 554.368 41.0696 553.207 39.2119C552.027 37.3248 550.399 35.7905 548.289 34.6152L547.86 34.3857C545.708 33.2701 543.224 32.6581 540.378 32.5859L539.804 32.5791H522.183Z" fill="white"/>
<path fill-rule="evenodd" clip-rule="evenodd" d="M63.436 13.0938C65.0971 13.0946 66.6079 14.0599 67.3061 15.5674L110.488 108.844C111.796 111.672 109.728 114.901 106.613 114.901H92.6908C91.0393 114.9 89.5356 113.947 88.8315 112.453L79.8686 93.4326L79.7797 93.3799C77.5511 93.1336 73.783 92.4647 71.8891 91.667C69.2834 90.5668 63.2909 88.0368 58.5873 91.4482C56.2282 93.1304 55.8058 93.2448 55.4672 93.2451C55.1441 93.2449 54.7073 93.131 52.3471 91.4482C47.6436 88.0368 41.6511 90.5667 39.0453 91.667C37.264 92.4177 33.8231 93.05 31.5658 93.3281L22.5502 112.453C21.8461 113.946 20.3422 114.9 18.6908 114.901H4.76896C1.65368 114.9 -0.408572 111.672 0.899822 108.844L44.0766 15.5674C44.775 14.0591 46.2894 13.0938 47.9516 13.0938H63.436ZM71.8891 88.1406C69.2836 87.0404 63.2907 84.5114 58.5873 87.9219C56.2278 89.6043 55.8058 89.7183 55.4672 89.7188C55.1441 89.7186 54.7081 89.6053 52.3471 87.9219C47.6437 84.511 41.651 87.0403 39.0453 88.1406C37.6897 88.7121 35.3722 89.2151 33.3471 89.5469L32.2485 91.875C34.1964 91.7102 36.4779 91.1532 38.0922 90.5C44.7604 87.8022 48.9594 87.3061 52.5658 90.0156C53.603 90.7947 55.3563 91.7146 55.4672 91.7188C55.5868 91.7097 57.3343 90.7927 58.3686 90.0156C61.9751 87.3064 66.1739 87.802 72.8422 90.5C74.5694 91.1987 77.0582 91.7912 79.0873 91.9062L78.0248 89.6201C75.9054 89.292 73.344 88.7536 71.8891 88.1406ZM71.8891 84.6201C69.2835 83.5199 63.2907 80.9907 58.5873 84.4014C56.2291 86.0828 55.8057 86.1978 55.4672 86.1982V88.1982C55.5874 88.1888 57.3345 87.272 58.3686 86.4951C61.9751 83.7851 66.1737 84.2756 72.8422 86.9736C74.1004 87.4826 75.7636 87.9342 77.3578 88.1875L76.2377 85.7861C74.601 85.4713 72.9502 85.0671 71.8891 84.6201ZM71.8891 81.0938C69.2835 79.9936 63.2908 77.4641 58.5873 80.875C56.2277 82.5576 55.8058 82.6763 55.4672 82.6768V84.6719C55.5883 84.6619 57.3348 83.7454 58.3686 82.9688C61.975 80.2599 66.1742 80.7551 72.8422 83.4531C73.6239 83.7693 74.565 84.0633 75.5453 84.3018L74.4096 81.8701C73.4381 81.6357 72.5495 81.372 71.8891 81.0938ZM71.8891 77.5732C69.2834 76.473 63.2908 73.9433 58.5873 77.3545C56.2285 79.0364 55.8057 79.151 55.4672 79.1514V81.1455C55.5885 81.1354 57.3348 80.2249 58.3686 79.4482C61.975 76.7385 66.1741 77.2289 72.8422 79.9268C73.0925 80.0279 73.3604 80.1283 73.6391 80.2236L72.4985 77.7969C72.2804 77.7224 72.0742 77.6512 71.8891 77.5732ZM59.5502 50.333C58.0118 47.0707 53.3699 47.0706 51.8315 50.333L39.8686 75.7188C45.5262 73.6442 49.2908 73.4614 52.5658 75.9219C53.603 76.701 55.3562 77.6209 55.4672 77.625C55.5868 77.6159 57.3343 76.699 58.3686 75.9219C61.7479 73.3834 65.6491 73.6576 71.6127 75.9219L59.5502 50.333Z" fill="white"/>
<path d="M701.296 13.0938C702.958 13.0944 704.467 14.0596 705.166 15.5674L748.348 108.844C749.656 111.672 747.589 114.901 744.473 114.901H730.551C728.9 114.9 727.396 113.947 726.692 112.453L697.412 50.333C695.873 47.0706 691.23 47.0701 689.692 50.333L660.412 112.453C659.707 113.947 658.203 114.901 656.551 114.901H642.629C639.513 114.901 637.45 111.672 638.759 108.844L681.937 15.5674C682.635 14.0589 684.149 13.0938 685.812 13.0938H701.296Z" fill="white"/>
</g>
<defs>
<clipPath id="clip0_1189_18590">
<rect width="749" height="128" fill="white" transform="translate(0.5)"/>
</clipPath>
</defs>
</svg>
