<svg width="84" height="24" viewBox="0 0 84 24" fill="none" xmlns="http://www.w3.org/2000/svg">
<path d="M26.0116 18.1773C24.5826 19.6063 22.7024 20.4956 20.6912 20.6937C18.68 20.8918 16.6623 20.3864 14.982 19.2636C14.3696 18.8545 13.8158 18.3725 13.331 17.8316L3.83958 7.46231V20.7376H0V3.26751H5.20514L11.3395 9.96923C11.4459 9.52385 11.5876 9.0855 11.7648 8.65793C12.5382 6.79087 13.9351 5.2497 15.7174 4.29706C17.4996 3.3444 19.5569 3.03922 21.5391 3.43349C23.5212 3.82772 25.3053 4.89706 26.5872 6.45923C27.8693 8.02141 28.57 9.97978 28.57 12.0007V13.9224H18.3179C17.9528 13.634 17.6768 13.247 17.523 12.8059C17.3552 12.3241 17.3421 11.802 17.4855 11.3124C17.6278 10.8267 17.917 10.3972 18.3132 10.0828H24.3405C24.1593 9.6574 23.9177 9.25684 23.6201 8.8943C22.9013 8.01859 21.9014 7.41919 20.7903 7.19817C19.6793 6.97714 18.5258 7.14825 17.5268 7.68227C16.5277 8.2163 15.7445 9.08023 15.311 10.1268C14.8777 11.1735 14.8203 12.338 15.1493 13.4221C15.4781 14.5062 16.1727 15.4427 17.1145 16.0721C18.0564 16.7015 19.1876 16.9847 20.3148 16.8737C21.4423 16.7627 22.4964 16.2642 23.2974 15.4631L26.0116 18.1773Z" fill="white"/>
<path d="M32.4284 3.26562H27.2227L35.2191 12.0016L27.2227 20.7376H32.4284L37.8218 14.8453L43.2152 20.7376H48.4209L40.4245 12.0016L48.4209 3.26562H43.2152L37.8218 9.15799L32.4284 3.26562Z" fill="white"/>
<path d="M56.1017 0H52.2617V14.4C52.2617 19.7019 56.5598 24 61.8617 24C66.0075 24 69.5394 21.3721 70.8827 17.6912L67.6141 14.6993C67.4583 17.7414 64.9425 20.16 61.8617 20.16C58.6806 20.16 56.1017 17.5812 56.1017 14.4V0Z" fill="#00F4D3"/>
<path d="M64.3827 6.53657V1.33084L73.9222 10.0626L83.4618 1.33084V6.53657L76.7659 12.6655L83.4617 18.7943V24L64.3827 6.53657Z" fill="#00F4D3"/>
</svg>
